<svg width="25" height="25" viewBox="0 0 25 25" fill="none" xmlns="http://www.w3.org/2000/svg">
<g id="hammer-svgrepo-com (1) 2" clip-path="url(#clip0_609_889)">
<path id="Vector" d="M23.6489 20.0917C22.6749 18.775 20.751 16.7042 18.5239 14.3052C16.3468 11.9625 13.8812 9.30835 11.9135 6.92293C11.5523 6.60411 11.2717 6.20432 11.0947 5.75627C11.068 5.40204 11.0076 5.05116 10.9145 4.70835C10.8968 4.6396 10.876 4.55939 10.8656 4.5021C11.5933 3.91503 12.4399 3.49314 13.3468 3.26564C14.4439 3.03428 15.558 2.8925 16.6781 2.84168L17.8135 2.79898L16.6833 1.58231L16.5291 1.54585C15.1441 1.23355 13.73 1.06805 12.3103 1.0521C9.80737 1.00355 7.36395 1.81791 5.39056 3.35835C5.37806 3.36877 4.16139 4.52085 4.25514 5.35002C4.31347 5.87398 4.13327 6.00627 3.65306 6.36147C3.50982 6.45552 3.38104 6.56991 3.27077 6.70106C2.72074 6.63574 2.16322 6.71695 1.65468 6.93647C1.14614 7.15598 0.704652 7.50599 0.374932 7.95106C0.224384 8.09536 0.11292 8.27551 0.0509775 8.47464C-0.0109652 8.67377 -0.0213603 8.88536 0.0207658 9.0896C0.338136 10.1342 0.999256 11.0409 1.89681 11.6625C2.99056 12.1833 4.26764 11.4333 5.39993 9.59377C5.67304 9.12208 6.11917 8.77534 6.64368 8.6271C7.35814 8.79192 8.05432 9.02782 8.72181 9.33127C8.81058 9.37035 8.90408 9.39766 8.99993 9.41252C12.3614 13.4625 14.6426 16.6448 16.3072 18.9698C17.4551 20.5709 18.2843 21.7281 19.0135 22.549L19.7603 23.3896C19.9113 23.5584 20.0945 23.6953 20.2991 23.7923C20.5038 23.8893 20.7258 23.9443 20.952 23.9542L21.0218 23.9552C21.4551 23.9544 21.8719 23.7887 22.1874 23.4917L23.4562 22.2886C23.7504 22.0087 23.9324 21.6311 23.9678 21.2266C24.0033 20.822 23.8899 20.4185 23.6489 20.0917ZM6.61139 7.58648C6.1768 7.66343 5.76411 7.83388 5.40188 8.08604C5.03964 8.3382 4.73652 8.66604 4.51347 9.04689C3.91868 10.0146 2.98847 11.0261 2.36452 10.7323C1.75959 10.2581 1.30218 9.62149 1.04577 8.89689C1.03222 8.7646 1.07077 8.7271 1.09472 8.70523C2.02702 7.8146 2.26452 7.65939 3.19056 7.7396C3.31391 7.74898 3.43789 7.73363 3.55523 7.69446C3.67257 7.65528 3.78091 7.59307 3.87389 7.51148C4.00827 7.39481 4.14472 7.29377 4.27389 7.19898C4.6215 7.01763 4.90538 6.73436 5.08746 6.38714C5.26954 6.03991 5.34113 5.64533 5.29264 5.25627C5.46891 4.83325 5.73555 4.4539 6.07389 4.14481C7.86115 2.77592 10.0595 2.05294 12.3103 2.09377C12.751 2.09377 13.1853 2.1146 13.5958 2.14793C13.4333 2.17918 13.2728 2.21356 13.1124 2.25002C12.0248 2.52175 11.0114 3.03238 10.1458 3.74481C9.98159 3.89617 9.86973 4.09576 9.82629 4.3148C9.78286 4.53383 9.81011 4.761 9.9041 4.96356C9.98252 5.24755 10.0331 5.53851 10.0551 5.83231C10.1432 6.30868 10.3613 6.75141 10.6853 7.11148C10.4407 7.26198 10.2043 7.42541 9.97702 7.60106C9.66565 7.82804 9.37682 8.08443 9.11452 8.36668H9.11243C8.32437 7.978 7.48058 7.71546 6.61139 7.58648ZM22.7385 21.5334L21.4708 22.7354C21.4082 22.7966 21.3335 22.8439 21.2515 22.8744C21.1695 22.9049 21.082 22.9179 20.9947 22.9125C20.9084 22.9089 20.8236 22.8881 20.7454 22.8512C20.6673 22.8144 20.5972 22.7623 20.5395 22.6979L19.7916 21.8573C19.0978 21.0761 18.2395 19.8792 17.1531 18.3625C15.5103 16.0709 13.2656 12.9417 9.97702 8.96356C10.1756 8.77058 10.3869 8.59102 10.6093 8.42606C10.8541 8.23343 11.1124 8.05867 11.3822 7.90314C13.2958 10.2031 15.6562 12.7511 17.7593 15.0146C19.9656 17.3896 21.8708 19.4417 22.8093 20.7104C22.8995 20.8329 22.9419 20.984 22.9287 21.1355C22.9155 21.2869 22.8475 21.4284 22.7374 21.5334H22.7385Z" fill="black"/>
</g>
<defs>
<clipPath id="clip0_609_889">
<rect width="25" height="25" fill="white"/>
</clipPath>
</defs>
</svg>
