<svg xmlns="http://www.w3.org/2000/svg" version="1.0" width="240" height="240" viewBox="0 0 180 180"><path d="M100.5 4c-2.4 2.4-5.5 4.5-8 5.1-6.5 1.8-12.7 5.4-16.8 9.8-2.1 2.3-4.4 4.1-5.1 4.1-.8 0-5.1 1.9-9.6 4.1-19.6 9.8-31 29-31 52.1V88h-2.9c-3.9 0-8.8 4.2-10 8.5-.9 3.5-.3 8.5 1.7 12 1.2 2.3 5.9 6.8 8.6 8.2 1 .6 2.6 3.2 3.5 5.9 1 2.7 2.1 5.6 2.4 6.4.5 1-.7 2.3-3.7 4.1-10.7 6.5-13.7 21.7-6 30.8l2.4 2.8-4.7.6c-3.2.3-5.3 1.2-6.5 2.7-2.3 2.9-2.3 4.1.3 7.4l2 2.6h145.8l2-2.6c2.6-3.3 2.6-4.5.3-7.4-1.2-1.5-3.3-2.4-6.4-2.7l-4.7-.5 2.6-4c3.1-4.7 4.1-12.8 2.3-18.3-1.5-4.6-7-10.8-11-12.5-1.7-.7-2.9-1.8-2.6-2.4.3-.6 1.3-3.7 2.2-6.8 1.3-4.2 2.2-5.8 3.9-6.2 4.7-1.2 11.4-10.8 11.5-16.4 0-6-5.5-12.2-10.9-12.2-1.8 0-1.9-.5-1.4-9.3 1.6-26-11.3-47.1-33.4-54.8-3.2-1.1-6.2-2.4-6.6-2.9-.5-.4-1-4.3-1.1-8.6-.2-8-1.6-12.4-3.9-12.4-.7 0-3.1 1.8-5.2 4zm5.2 9.8c-.9 4.9-6.9 13.7-11.8 16.9-3.1 2.1-5.7 2.8-10.6 3.1-7.2.5-8.7-.3-7.7-4.2.4-1.8 1.3-2.6 2.8-2.6 5 0 12.1-3.4 16.8-8.1 2.6-2.7 4.8-5.5 4.8-6.3 0-.8 1-2.4 2.2-3.6 2-1.8 2.3-1.9 3.1-.4.5.9.7 3.2.4 5.2zm-10.6 2.1c-2.7 3.7-6 5.8-11.5 7.3-5.3 1.4-6.7.6-4.1-2.2 2.2-2.5 13.1-8 15.7-8 1.9 0 1.9.1-.1 2.9zm11.9 8.7c1.6 4.1-3.5 10.4-11.5 14.2-6.1 2.9-13.1 3.7-16.1 1.7-3.7-2.4-2.9-3.2 3.5-3.8 7.9-.7 12.4-3 17.9-9.3 2.6-3 4.8-5.4 5-5.4.1 0 .7 1.2 1.2 2.6zm15.4 6.3c12.1 6.4 20 17.7 23.2 33.1 2 9.6 1.2 18.6-2.7 30.6l-3.1 9.1 2.1 3.4c4.6 7.5 1.4 22.9-4.7 22.9-2.7 0-11 2-14.4 3.5-1.5.6-1.8.1-1.8-3.3 0-5.5-4.6-13.9-9.7-17.8-9.7-7.4-23.5-6.2-31.9 2.8-5.2 5.4-6.8 9.5-6.7 17 0 4.3-.4 6.8-1.1 6.8-.6 0-3.5-1.1-6.4-2.5-7.4-3.4-17.8-6.5-22.1-6.5-3 0-4-.6-6.1-3.8-3.5-5.2-3.6-15.2-.2-19.9l2.3-3.2-2.3-7.3c-3.2-10.1-3.1-25.4.1-34.8 4.7-13.4 14.9-25.1 26.6-30.6 6.9-3.3 7.5-3.1 7.5 1.6 0 5 1.9 8.9 6 12.4 8.7 7.2 26.7 5.3 33.3-3.6 1.2-1.7 2.2-4.9 2.5-8.3.5-6.4.7-6.4 9.6-1.6zm-16.1 7c-2.7 3.6-8 6.1-12.8 6l-4-.1 3.4-.9c4-1.2 9.9-4.8 12.6-7.8 2.6-3 3.3-.7.8 2.8zm-73.8 59c1.5 4.7 1.5 5.1-.4 8.7-1.2 2.1-2.1 4.4-2.1 5.1 0 2-2.5 1.5-4.7-1-5.2-5.6-5.9-12.3-1.7-15.6 4.6-3.6 7-2.8 8.9 2.8zm121.8-3.8c3 1.6 3.7 2.8 3.7 6.7 0 4.1-2.2 8.4-5.7 11.1-3 2.5-3.4 2.2-5.7-4-1.3-3.5-1.4-5.2-.6-7.3.5-1.4 1.4-3.7 2-5.1 1-2.7 2.9-3.1 6.3-1.4zM105.6 115c2.3 1.2 5.3 3.8 6.8 5.8 2.7 4 4.7 13.2 2.8 13.2-2.2 0-6.2-2.3-6.2-3.6 0-5.7-6.9-10.9-13.2-10.1-11.3 1.5-14.6 17.1-4.8 22.2 2.5 1.3 3 2.2 3 5.1 0 3.2-.2 3.5-2.2 2.9-8.2-2.4-13.8-9.9-13.8-18.4 0-6.1 1.3-9.7 4.8-13.5 5.5-5.8 15-7.3 22.8-3.6zm-3.5 11.8c3.3 2.7 3 7.8-.5 10.9-3.3 2.8-5.6 2.9-9 .2-1.9-1.5-2.6-3-2.6-5.5 0-6.5 6.9-9.7 12.1-5.6zm-46.4 10.8c3.7 1.5 9.9 3.7 13.7 5.1 4.5 1.6 7.7 3.5 9.4 5.5 2.6 3 11.2 7.8 14.2 7.8.9 0 2.7 1.3 4.2 3 3.3 3.7 6.4 3.8 13.7.5 5.2-2.5 7.6-2.6 5.4-.4-.6.6-.9 1.8-.6 2.5.3.9-.2 1.4-1.6 1.4-1.3 0-2.1.6-2.1 1.6 0 1.1-.5 1.4-1.7.9-3.9-1.6-5.1-1.6-8.8-.1-4.7 2-5.9 2-10 0-3.1-1.5-4-1.4-16.2 1.7-10.3 2.6-14.9 3.3-23.3 3.3-12.6.1-18.2-1.7-23.4-7.4-5-5.5-6.4-10.7-4.3-16.2 4.9-12.6 14.9-15.5 31.4-9.2zm87.3-2.5c7.6 1.7 13 8.7 13 16.8 0 1.4-.9 4.4-2.1 6.7-2.9 6.2-10.6 9.9-20.4 9.8-3.8 0-8.7-.4-10.8-.8-3.4-.6-3.6-.9-2.6-2.8.7-1.2.9-4.3.6-7.2-.4-4.1-.1-5.6 1.4-7.5 2-2.5 2.6-8.6.9-9.6-2-1.2-.9-2.3 4.3-3.8 9.6-2.9 9.9-2.9 15.7-1.6zm-27.5 4.7c4.8 3.4 5.4 6 2.1 9.9-3.1 3.7-11.9 8.5-14.9 8.1-2.6-.4-5-6.5-4.4-11.3l.3-3 1.3 3.3c2.3 5.7 6.9 6.4 11.9 1.9 2.9-2.7 2.8-5.5-.5-8.9-3.5-3.7-1.1-3.6 4.2 0zm-7.1 3.1c1.5 1.6 1.5 2 .1 3.1-1.9 1.6-4.5.6-4.5-1.8 0-3.5 1.9-4.1 4.4-1.3z" fill="#a7aaad"/><path d="M54.5 92.4c-2.9 1.3-2.8 1.3 4 1.7 4.5.3 8.6 1.2 11.4 2.6 2.5 1.3 4.6 2.1 4.8 2 .1-.2-.5-1.4-1.4-2.6-3.2-4.7-12.5-6.5-18.8-3.7zM112 91.7c-2.9 1.1-7 4.5-7 5.7 0 1 1.1.8 4.2-.7 2.4-1.2 7.1-2.3 11.2-2.7 7-.5 7.1-.5 3.7-1.8-3.5-1.2-9.4-1.5-12.1-.5zM81.8 101.1c-1.9 1.1-2.5 5.4-.9 6.4.5.3 1.1-.7 1.3-2.2.2-2.2.9-2.9 3.1-3.1 1.5-.2 2.5-.8 2.2-1.3-.8-1.2-3.5-1.1-5.7.2z" fill="#a7aaad"/></svg>