<svg width="25" height="25" viewBox="0 0 25 25" fill="none" xmlns="http://www.w3.org/2000/svg">
<g id="key">
<path id="Vector" d="M21.875 2.08331L19.7917 4.16665M11.8646 12.0937L16.1459 7.81248M16.1459 7.81248L19.2709 10.9375L22.9167 7.29165L19.7917 4.16665M16.1459 7.81248L19.7917 4.16665M11.8646 12.0937C12.4025 12.6244 12.83 13.2563 13.1227 13.9529C13.4154 14.6495 13.5673 15.3971 13.5699 16.1527C13.5724 16.9083 13.4254 17.6569 13.1375 18.3555C12.8495 19.0541 12.4261 19.6888 11.8919 20.223C11.3576 20.7573 10.7229 21.1807 10.0243 21.4686C9.32575 21.7566 8.57713 21.9036 7.82153 21.9011C7.06594 21.8985 6.31832 21.7466 5.6217 21.4539C4.92508 21.1612 4.29324 20.7337 3.76254 20.1958C2.71893 19.1153 2.14146 17.6681 2.15451 16.1659C2.16757 14.6637 2.7701 13.2268 3.83233 12.1646C4.89457 11.1023 6.33151 10.4998 7.83368 10.4867C9.33585 10.4737 10.7831 11.0512 11.8636 12.0948L11.8646 12.0937Z" stroke="#1A1A1A" stroke-width="1.5" stroke-linecap="round" stroke-linejoin="round"/>
</g>
</svg>
