<svg width="12" height="12" viewBox="0 0 12 12" fill="none" xmlns="http://www.w3.org/2000/svg">
<path d="M5.99994 0.719971C4.40713 0.719971 3.11994 2.00716 3.11994 3.59997V4.79997H2.15994C1.76525 4.79997 1.43994 5.12528 1.43994 5.51997V11.28C1.43994 11.6747 1.76525 12 2.15994 12H9.83994C10.2346 12 10.5599 11.6747 10.5599 11.28V5.51997C10.5599 5.12528 10.2346 4.79997 9.83994 4.79997H8.87994V3.59997C8.87994 2.00716 7.59275 0.719971 5.99994 0.719971ZM5.99994 1.19997C7.33588 1.19997 8.39994 2.26403 8.39994 3.59997V4.79997H3.59994V3.59997C3.59994 2.26403 4.664 1.19997 5.99994 1.19997ZM2.15994 5.27997H9.83994C9.97307 5.27997 10.0799 5.38685 10.0799 5.51997V11.28C10.0799 11.4131 9.97307 11.52 9.83994 11.52H2.15994C2.02682 11.52 1.91994 11.4131 1.91994 11.28V5.51997C1.91994 5.38685 2.02682 5.27997 2.15994 5.27997ZM5.99994 7.19997C5.59213 7.19997 5.27994 7.51216 5.27994 7.91997C5.27994 8.1356 5.37557 8.32497 5.51994 8.44497V9.11997C5.51994 9.38435 5.73557 9.59997 5.99994 9.59997C6.26432 9.59997 6.47994 9.38435 6.47994 9.11997V8.44497C6.62432 8.32497 6.71994 8.1356 6.71994 7.91997C6.71994 7.51216 6.40775 7.19997 5.99994 7.19997Z" fill="#818181"/>
</svg>
